<?xml version="1.0" standalone="no"?><!DOCTYPE svg PUBLIC "-//W3C//DTD SVG 1.1//EN" "http://www.w3.org/Graphics/SVG/1.1/DTD/svg11.dtd"><svg class="icon" width="200px" height="200.00px" viewBox="0 0 1024 1024" version="1.1" xmlns="http://www.w3.org/2000/svg"><path fill="#515151" d="M592.295 480.82c27.768 2.492 56.096-5.857 76.94-26.742 17.487-17.52 27.766-40.614 27.766-66.792 0-26.151-10.279-49.272-27.484-66.792h-0.282c-16.947-16.98-40.56-27.564-66.685-27.564-12.484 0-24.177 2.518-35.253 6.705-11.127 4.444-21.126 11.098-29.74 19.447-15.28 14.489-39.175 14.206-54.146 0-8.334-8.349-18.897-15.002-30.024-19.447-10.819-4.187-22.767-6.705-34.996-6.705-26.125 0-49.738 10.584-66.659 27.564l-1.667 1.67c-16.101 16.955-26.124 39.791-26.124 65.122 0 26.177 10.561 49.272 27.79 66.792 20.536 20.885 49.43 29.234 76.658 26.742 11.665-1.13 21.664 1.927 30.561 10.276 8.332 7.244 12.768 17.544 12.768 28.669v275.541c0 25.073-21.664 26.998-24.97 45.675-1.694 7.782 0 17.52 4.434 26.691 4.999 11.432 13.332 21.733 23.305 29.799 11.127 9.454 23.331 15.001 33.919 14.463 1.924 0 3.871 0 5.538 0.538 10.281-0.538 21.69-6.087 32.227-15.001 9.999-8.066 18.049-18.368 23.049-30.339 4.717-8.632 6.692-18.369 5.281-26.151v-0.565c-4.717-18.933-26.1-21.99-25.279-47.037V519.765c0-11.125 4.717-21.425 13.05-28.669 8.333-8.349 18.896-11.406 30.023-10.276z m278.867-201.787v244.355c0 111.619-91.656 203.175-202.49 203.175h-41.406v51.763c30.561 34.526 32.227 81.28 13.357 122.203-10.281 21.425-25.561 41.743-44.457 57.03-24.433 20.089-54.456 32.882-84.427 32.599-31.125 1.927-62.25-11.407-87.247-32.599-18.306-15.286-34.148-35.324-43.891-57.03-18.897-40.383-17.487-87.677 12.819-122.203v-51.763h-41.151c-111.09 0-202.49-91.556-202.49-203.175V279.033H40.613C27.845 279.033 17 268.166 17 255.089V61.934C17 49.115 27.845 38.53 40.613 38.53H980.612c12.768 0 23.331 10.585 23.331 23.404v193.154c0 13.077-10.563 23.944-23.331 23.944h-109.45v0.001zM627.266 679.808h41.406c85.273 0 155.547-70.414 155.547-156.421V279.033h-87.758c24.714 29.208 38.866 67.049 38.866 108.254 0 47.859-19.434 91.016-50.251 122.203-27.228 26.691-61.684 43.389-97.81 48.424v121.894zM196.724 279.033v244.355c0 85.724 69.992 156.421 155.547 156.421h41.151V557.913c-35.844-5.035-70.302-21.733-97.247-48.424-31.099-31.187-50.559-74.344-50.559-122.203 0-41.205 14.434-79.045 38.331-108.254h-87.223v0.001z m-8.051-47.321l-55.84-56.516c-9.46-9.17-9.46-23.658 0-33.112l1.102-1.413 55.02-55.077H63.971v146.118h124.702z m66.378-146.118l-72.761 73.188 73.043 72.93h87.785c23.074-10.865 48.61-17.262 75.274-17.262 22.228 0 43.867 4.444 63.89 12.536 9.999 4.162 19.434 8.606 28.05 14.463 9.177-5.857 18.33-10.301 28.047-14.463 19.998-8.092 42.252-12.536 64.172-12.536 26.946 0 52.507 6.397 75.017 17.262h279.149V85.594H255.051z m124.447 38.122c18.895 0 35.022 15.593 35.022 35.066 0 19.497-16.126 34.783-35.022 34.783-19.434 0-34.996-15.286-34.996-34.783 0-19.472 15.563-35.066 34.996-35.066z m-89.99 0c19.152 0 34.714 15.593 34.714 35.066 0 19.497-15.562 34.783-34.714 34.783-19.177 0-34.996-15.286-34.996-34.783 0-19.472 15.819-35.066 34.996-35.066z" /></svg>