<?xml version="1.0" standalone="no"?><!DOCTYPE svg PUBLIC "-//W3C//DTD SVG 1.1//EN" "http://www.w3.org/Graphics/SVG/1.1/DTD/svg11.dtd"><svg class="icon" width="200px" height="200.00px" viewBox="0 0 1024 1024" version="1.1" xmlns="http://www.w3.org/2000/svg"><path fill="#515151" d="M963.126 706.103c20.613 0 37.003 16.693 37.003 37.076 0 21.166-16.39 37.614-37.003 37.614-9.245 0-17.439-0.269-25.905-0.782-1.854 0.513-3.683 0.782-5.269 0.782H67.735l-1.049-0.269c-19.807-0.807-35.393-16.693-35.393-37.345 0-20.384 16.636-37.076 37.54-37.076 109.911 0 152.208-55.603 193.699-111.474C312.999 528.151 363.2 461.183 493.77 454.291v-42.893c0-12.196 9.513-21.997 21.929-21.997 16.635 0 31.198-6.892 42.028-17.475v-0.269c10.318-10.607 16.904-25.418 16.904-42.111 0-15.618-6.586-30.722-16.904-41.28-10.83-10.876-25.392-17.231-42.028-17.231-16.099 0-31.173 6.355-41.491 17.231-11.098 10.558-17.44 25.394-17.44 41.28 0 12.734-10.05 23.048-22.197 23.048-12.416 0-22.197-10.314-22.197-23.048 0-56.678 46.248-103.531 103.326-103.531 28.271 0 54.712 11.658 73.201 30.722v-0.269c19.026 19.064 30.663 44.751 30.663 73.078 0 49.272-34.614 91.628-81.399 101.698v23.048c130.035 6.892 180.503 73.86 230.726 140.338 42.003 55.871 83.763 111.473 194.235 111.473zM538.164 529.739v35.512c0 12.171-10.316 22.217-22.465 22.217-12.416 0-21.929-10.045-21.929-22.217v-35.512c-94.08 6.624-132.669 58.243-171.77 109.909-26.441 35.22-52.59 69.9-90.398 96.371h568.193c-37.782-26.47-63.956-61.151-90.373-96.371-38.564-51.666-77.713-103.285-171.258-109.909z" /></svg>