<?xml version="1.0" standalone="no"?><!DOCTYPE svg PUBLIC "-//W3C//DTD SVG 1.1//EN" "http://www.w3.org/Graphics/SVG/1.1/DTD/svg11.dtd"><svg class="icon" width="200px" height="200.00px" viewBox="0 0 1024 1024" version="1.1" xmlns="http://www.w3.org/2000/svg"><path fill="#515151" d="M478.447 690.658c13.131 0 23.232 10.146 23.232 22.746 0 13.157-10.101 23.86-23.232 23.86-25.176 0-45.426 20.267-45.426 45.215 0 13.182-10.101 23.025-22.979 23.025-12.577 0-22.979-9.842-22.979-23.025-0.001-50.427 41.031-91.821 91.384-91.821z m195.348 51.793c29.545-2.707 57.45-7.11 83.432-15.89 34.772-10.399 65.934-26.567 91.664-46.859 33.08-26.314 55.807-54.298 68.938-82.51 15.328-32.361 19.141-65.812 13.687-98.172-5.48-33.425-21.363-66.318-44.847-95.945-28.484-35.625-67.877-66.62-114.391-88.81l-10.934-5.212C662.836 262.194 567.36 216.954 567.36 85.915 567.36 64.811 584.858 47 606.221 47c21.59 0 38.585 17.811 38.585 38.915 0 81.979 73.308 117.604 149.365 153.507l10.934 4.934c57.45 27.426 106.159 65.811 141.739 110.772 31.161 39.471 52.524 84.686 60.453 130.761 8.485 47.416 3.03 96.477-19.974 144.17-18.055 38.941-47.878 75.958-90.276 109.686-33.383 26.871-73.331 47.138-116.561 60.85-33.385 10.147-69.217 16.699-106.161 19.736-17.5 93.189-100.4 162.01-195.879 162.01-96.058 0-178.379-68.821-195.904-163.097-28.459-1.95-55.807-7.135-81.513-15.08-36.689-11.791-69.517-28.237-97.422-51.287-35.832-27.682-60.175-59.207-75.781-91.543-19.14-40.029-23.787-81.423-16.666-121.425 6.565-39.218 24.065-76.792 50.327-109.684 29.545-36.993 70.301-69.328 118.457-92.378l8.51-3.822c59.645-28.514 117.623-55.941 117.623-118.437 0-21.937 17.247-38.941 38.309-38.941 21.866 0 38.583 17.004 38.583 38.941 0 111.304-79.341 148.852-161.688 187.765l-8.762 4.126c-36.691 18.091-67.852 42.482-90.831 70.719-18.08 23.05-30.656 48.529-35.024 74.843-3.838 24.948-1.086 50.731 10.934 75.4 10.126 22.468 27.929 44.125 53.635 64.419 20.505 16.699 45.43 29.325 72.473 37.548 18.888 6.022 38.585 9.336 59.115 12.044 19.419-92.099 100.959-160.086 195.626-160.086 94.644 0 176.738 67.986 195.348 160.085z m-195.348-82.484c-67.296 0-122.017 53.995-122.573 121.424v2.201c0.556 67.177 55.276 121.171 122.573 121.171 67.322 0 122.017-53.995 122.547-121.171v-2.201c-0.53-67.43-55.226-121.424-122.547-121.424z" /></svg>