<?xml version="1.0" standalone="no"?><!DOCTYPE svg PUBLIC "-//W3C//DTD SVG 1.1//EN" "http://www.w3.org/Graphics/SVG/1.1/DTD/svg11.dtd"><svg class="icon" width="200px" height="200.00px" viewBox="0 0 1024 1024" version="1.1" xmlns="http://www.w3.org/2000/svg"><path fill="#515151" d="M443.812 616.088c-21.135 5.747-40.439 16.734-55.838 32.695-7.326 7.341-18.822 8.403-27.714 2.366l-34.462-19.607-15.665 26.417 35.498 20.911c8.917 5.264 13.086 15.429 10.459 25.137-4.168 15.937-5.205 32.961-3.398 49.693 1.036 5.772 1.856 10.988 3.398 16.469 2.892 9.973-2.073 20.694-10.965 25.137l-34.992 20.139 15.665 27.19 35.498-21.418c8.893-4.709 20.388-2.898 27.184 4.442 7.832 7.583 16.436 14.393 26.124 19.874 9.11 5.506 19.569 9.949 30.799 12.581 9.399 2.849 16.172 11.76 16.172 21.684v41.074h30.821v-41.074c0-10.987 7.832-19.873 17.761-21.974 21.4-5.747 40.728-16.734 55.886-32.695 7.567-7.317 19.063-8.113 27.666-2.873l34.727 20.38 15.399-26.682-35.497-21.177c-9.158-4.974-13.087-14.899-10.461-24.606 5.736-21.684 5.736-44.722 0-66.163-2.627-10.987 2.627-21.732 12.266-26.175l33.691-19.873-15.399-26.417-35.762 20.646c-8.894 4.998-20.124 3.405-27.186-3.912-15.664-15.961-35.232-26.948-56.368-32.696-10.192-2.872-16.725-11.517-16.725-21.732v-40.542h-30.293v40.542c0.002 11.01-8.095 20.138-18.289 22.239zM322.4 265.762v58.098c0 12.025-9.64 22.238-21.641 22.238-12.556 0-22.46-10.213-22.46-22.238v-58.098h-153.03v58.098c0 12.025-10.194 22.238-22.46 22.238s-21.93-10.213-21.93-22.238v-59.402c-15.665-4.443-26.895-18.303-26.895-35.569 0-20.163 16.484-36.897 37.089-36.897H431.81v-53.099c0-31.898 26.124-57.542 57.453-57.542h302.879c4.675-4.709 9.399-8.379 15.134-11.012 9.158-4.949 19.834-6.808 31.329-6.808 66.586 0 167.658 57.034 167.393 131.36 0 6.254-0.53 12.556-1.591 18.835l-0.265 1.038c-1.541 6.544-3.133 12.822-5.977 18.835-15.399 37.161-51.982 61.744-91.939 61.744-16.942 0-34.197-4.709-48.825-13.064l-2.844-2.125-173.129 0.264c10.194 15.987 16.195 35.353 16.195 58.365 0 55.973-49.62 105.16-105.772 105.16-9.109 0-18.243-0.797-26.871-3.139-8.869 2.342-18.267 3.139-27.16 3.139-58.489 0-106.013-47.087-106.013-105.16v-73.021H322.4z m-55.066 418.372h-96.109c-12.267 0-21.906-9.973-21.906-22.264V626.036c-6.796-2.342-13.084-5.747-18.797-8.645l-1.325-0.773c-5.471-3.405-10.724-6.81-15.399-10.987l-31.329 18.062c-10.459 5.747-23.762 2.342-30.028-8.115l-0.794-1.061-29.764-52.037c-6.025-10.214-2.097-24.364 8.362-30.111l30.8-17.796-0.532-1.811c-0.771-6.544-1.277-13.089-1.277-18.835 0-6.278 0.506-12.581 1.277-19.39v-0.507l0.532-1.038-30.8-17.796c-10.459-5.748-14.387-19.366-8.362-30.087l30.558-53.124c6.266-10.433 19.569-13.836 30.028-7.582l30.799 17.265c5.76-3.646 11.495-8.089 17.255-10.987 5.713-3.912 12.001-6.809 18.797-9.393v-36.124c0-11.518 9.64-21.708 21.906-21.708h61.091c12.026 0 21.954 10.19 21.954 21.708V361.288c6.266 2.584 12.532 5.481 18.532 9.393 6.001 2.898 11.736 7.341 16.99 10.987l31.329-17.265c10.435-6.254 24.003-2.851 29.763 7.582l30.799 53.124c5.736 10.721 2.073 23.809-8.338 30.087l-30.821 17.796 0.529 1.545c0.506 6.809 1.036 13.112 1.036 19.39 0 5.746-0.53 12.556-1.036 18.835v0.266l-0.529 0.507v1.038l30.821 17.796c10.411 5.747 14.074 19.897 8.338 30.111-6.266 10.432-19.328 13.836-30.293 7.582l-43.861-25.137c-8.867-4.177-13.568-14.899-11.23-25.644 1.325-3.139 2.097-7.848 2.868-12.025v-0.531c0.53-3.646 0.53-8.089 0.53-12.798 0-4.998 0-9.176-0.53-13.089v-0.264c-0.505-3.67-1.542-8.379-2.868-12.822-2.338-9.152 1.566-19.897 10.7-24.847l25.593-14.657-8.867-15.189-24.559 14.656c-8.603 5.772-20.364 4.179-27.666-3.404-6.266-5.988-13.062-11.76-20.894-15.431-6.772-4.442-14.098-7.315-22.46-9.923-10.435-1.835-18.002-10.987-18.002-21.468v-29.82h-16.99v29.82c0 9.708-6.266 18.835-16.171 21.178-8.869 1.859-16.99 5.506-24.292 10.213-7.591 3.672-14.339 9.176-20.629 15.166-6.266 7.341-17.76 9.441-26.63 4.202l-25.592-15.189-8.87 15.189 23.497 13.619c9.929 4.683 15.399 15.164 12.532 25.886-1.036 4.443-2.073 9.152-2.603 12.556v0.53c-0.506 3.913-1.06 8.622-1.06 13.089 0 4.709 0.554 9.152 1.06 12.798 0.53 4.202 1.566 8.885 2.603 13.088 2.362 9.417-1.566 19.897-10.17 24.606l-25.858 15.164 8.87 14.657 25.592-14.657c8.362-4.95 19.328-3.912 26.63 3.405 5.76 6.254 12.532 11.253 19.835 15.961l0.794 0.266c7.037 3.912 14.871 7.317 22.701 9.128 10.194 2.632 17.761 11.253 17.761 21.998v29.822h76.756l28.752-49.719c5.999-10.721 19.302-14.633 29.761-8.355l41.258 23.809c14.074-12.051 30.799-21.177 47.765-27.479v-47.883c0-12.026 10.194-21.685 22.197-21.685h74.682c12.532 0 21.93 9.659 21.93 21.685v47.884c17.496 6.302 33.956 15.429 48.295 27.479l40.993-23.809c10.459-6.278 23.786-2.366 29.788 8.355l37.595 64.642v0.242c5.999 10.479 2.601 24.075-8.099 30.353l-40.487 23.543 0.53 4.733v0.507c1.062 7.847 1.566 15.189 1.566 22.215 0 7.341-0.504 14.657-1.566 22.795l-0.53 5.216 40.487 23.809c10.7 5.77 13.857 19.366 8.099 29.822l-37.595 64.883c-5.737 10.745-19.329 14.392-29.788 8.619l-41.258-23.784c-14.074 11.76-30.534 21.201-48.03 27.721v47.352c0 12.049-9.929 21.998-21.93 21.998h-74.682c-12.003 0-22.197-9.949-22.197-21.998v-47.352c-8.603-3.381-16.966-7.341-25.038-12.291-8.099-4.177-15.423-9.417-22.727-15.696l-40.993 24.049c-10.724 5.772-24.027 2.126-30.026-8.619l-37.62-64.883c-5.712-10.456-2.338-24.052 8.362-29.822l40.487-23.809-0.795-4.685v-0.531c-1.566-14.923-1.566-29.822 0-45.01v-0.507l0.795-4.733-40.487-23.543-2.071-1.548z m327.411-284.139c30.799-1.594 58.754-30.353 58.754-61.213 0-29.049-15.954-51.288-43.861-59.402-11.76-3.405-18.291-15.961-14.893-27.456 2.627-9.706 12.001-15.96 21.159-15.96h245.451c5.712 0 11.23 2.342 14.845 5.747 30.293 22.747 77.31 1.304 84.612-35.834 12.532-54.428-78.323-98.375-122.207-98.375-4.698 0-8.869 0.773-12.001 2.342-1.832 1.061-3.663 2.874-4.699 4.733-4.169 6.785-11.736 10.697-19.326 10.697H489.263c-7.326 0-13.062 6.302-13.062 13.619v199.889c0 53.099 49.62 68.022 84.082 33.202 11.495-11.518 18.267-26.948 18.267-44.189 0-12.291 9.953-22.239 22.46-22.239 12.001 0 21.954 9.949 21.954 22.239 0.001 27.72-10.988 53.1-28.219 72.2z" /></svg>