<?xml version="1.0" encoding="utf-8"?>
<!-- Generator: Adobe Illustrator 21.0.2, SVG Export Plug-In . SVG Version: 6.00 Build 0)  -->
<svg version="1.1" id="图层_1" xmlns="http://www.w3.org/2000/svg" xmlns:xlink="http://www.w3.org/1999/xlink" x="0px" y="0px"
	 viewBox="0 0 600 600" style="enable-background:new 0 0 600 600;" xml:space="preserve">
<style type="text/css">
	.st0{fill-rule:evenodd;clip-rule:evenodd;fill:#272536;}
</style>
<g>
	<path class="st0" d="M460.8,552.1H138.4c-12.7,0-23,24-23,24v24h368.5v-24C483.8,562.9,473.5,552.1,460.8,552.1L460.8,552.1
		L460.8,552.1L460.8,552.1z M529.9,1.2H69.3C31.1,1.2,0.2,33.4,0.2,73.1v335.3c0,39.7,30.9,71.9,69.1,71.9h161.2v24
		c0,13.2,10.3,23.9,23,23.9h92.1c12.7,0,23-12.3,23-23.9v-24h161.2c38.1,0,69.1-32.2,69.1-71.9V73.1C599,33.4,568.1,1.2,529.9,1.2
		L529.9,1.2L529.9,1.2L529.9,1.2z M69.3,384.4c-12.7,0-23-10.8-23-24V73.1c0-13.2,10.3-23.9,23-23.9h460.6c12.7,0,23,10.8,23,23.9
		v287.4c0,13.2-10.3,24-23,24H69.3L69.3,384.4L69.3,384.4z M467.6,109.7l-75.8,78.9l-52.8-54.9c-5.1-5.3-12.2-7.8-19.3-6.8
		c-7.1,1-13.4,5.4-16.9,11.9l-68.5,124.6l-28.3-73.7c-2.9-7.5-9.2-12.9-16.8-14.6c-7.7-1.6-15.5,0.8-20.9,6.5l-69.1,71.9
		c-9,9.4-9,24.5,0,33.9c9,9.4,23.6,9.4,32.6,0l44.4-46.2l33.1,86c3.3,8.5,11,14.4,19.8,15c0.5,0,1.1,0.1,1.6,0.1
		c8.2,0,15.9-4.6,20-12.1l77.2-140.4l47.8,49.7c9,9.4,23.6,9.4,32.6,0l92.1-95.8c9-9.4,9-24.5,0-33.9
		C491.1,100.3,476.6,100.3,467.6,109.7L467.6,109.7L467.6,109.7L467.6,109.7z"/>
</g>
</svg>
