<?xml version="1.0" standalone="no"?><!DOCTYPE svg PUBLIC "-//W3C//DTD SVG 1.1//EN" "http://www.w3.org/Graphics/SVG/1.1/DTD/svg11.dtd"><svg class="icon" width="200px" height="200.00px" viewBox="0 0 1024 1024" version="1.1" xmlns="http://www.w3.org/2000/svg"><path fill="#515151" d="M836.847 876.047l71.06-266.268c14.053-51.896-2.065-93.346-31.23-118.908-13.549-12.011-30.197-20.628-47.902-26.357-17.969-5.199-36.971-7.823-55.709-5.199-42.424 3.659-82.735 30.257-102.025 82.129-6.222 17.475-24.455 27.126-41.896 23.756-10.402-2.093-20.564-2.888-30.197-2.622-9.609 0.53-19.507 2.622-28.875 4.429-33.848 9.676-57.799 29.485-72.357 54.496-11.723 19.329-17.705 41.762-17.441 64.702 0 22.938 5.717 45.349 17.441 64.678h0.264c14.847 24.504 38.773 44.867 72.621 53.725l0.504 0.241 1.561 0.265 0.505 0.265 53.115 13.841 1.033 0.505 209.528 56.322zM386.058 266.581l-0.529-1.06-16.672-62.824c-6.75-24.793 1.85-44.361 16.409-57.383l1.824-2.094c5.982-4.164 13.02-8.088 20.564-10.447 7.807-2.311 16.143-3.394 24.457-2.311 15.615 1.805 30.46 9.099 40.621 23.445 17.705 1.565 31.47 11.217 41.127 23.734 4.66 6.522 8.312 14.346 10.114 22.434v2.094a48.099 48.099 0 0 1 0 22.939c-3.339 19.834-16.888 36.756-41.343 43.302l-64.045 17.212h-0.24c-6.774 1.563-14.077 0.77-19.819-2.624-5.453-3.394-9.609-8.33-11.963-14.081v-0.77l-0.505-1.566z m25.248-75.364l12.732 47.443 46.604-12.493c4.684-1.566 9.633-3.923 10.666-9.412 0.264-1.565 0-4.164 0-5.994l-0.264-0.77c-0.504-2.094-1.537-4.429-2.618-6.523h-0.504c-2.835-3.923-7.279-6.258-13.525-5.464-10.402 1.541-21.356-3.659-24.984-13.842-2.618-6.258-7.302-9.651-11.987-9.916-2.33-0.505-4.66 0-7.279 0.265-1.802 0.504-3.65 2.094-5.189 3.129l-0.553 0.264c-3.099 2.625-4.684 7.295-3.099 13.313z m204.051-73.825l12.996-47.178c1.057-5.247-0.504-10.182-3.892-12.541-1.802-2.07-3.892-3.37-6.51-3.924-2.065-0.771-4.156-1.035-6.75-0.771h-0.552c-4.156 0.531-8.312 3.129-10.642 9.918-3.387 10.158-14.053 15.911-24.215 14.105-7.303-0.554-11.963 1.276-14.582 4.67-1.033 2.07-2.066 4.188-2.594 6.788-0.504 2.069-0.504 4.429 0 6.764 0.529 3.924 3.916 8.088 9.633 9.676h0.24l46.868 12.493z m55.18-36.226l-16.648 63.618-0.527 1.059-0.53 1.3v1.035c-2.09 5.729-6.75 10.687-11.987 13.552-5.717 3.658-12.996 4.694-19.771 2.888h-0.504l-63.012-16.97v-0.505h-0.504c-24.455-6.282-38.004-23.998-41.656-43.303-1.537-8.064-1.537-17.21 0-25.033 1.85-8.088 5.237-16.416 10.426-23.204 9.346-12.517 23.158-21.134 40.863-22.434 9.609-14.612 23.687-21.663 38.509-23.734l1.297-0.241c8.36-0.554 16.936 0 25.009 2.576 7.806 2.624 15.615 6.282 21.861 12.276 14.844 12.782 23.924 33.627 17.174 57.12z m-68.729 288.943l12.492-47.467c1.587-5.464-0.505-10.424-3.892-13.022-1.297-1.565-3.916-3.153-6.246-3.66-2.354-0.528-4.708-0.769-6.51-0.528h-0.503c-4.181 0.528-8.337 3.658-10.691 9.893-3.892 9.917-14.318 15.669-24.984 14.105-6.246-0.794-11.195 1.563-13.789 5.488-1.561 1.805-2.618 4.429-3.123 6.788v0.505c-0.529 1.829-0.529 4.428 0 5.994 0.504 3.659 3.892 7.558 9.897 9.388l47.349 12.516z m55.204-36.01l-17.2 62.872v1.035l-0.505 1.587-0.529 0.241c-2.09 6.284-6.246 11.483-11.459 14.612-6.246 3.105-13.02 4.188-20.275 2.335l-63.781-17.188h-0.288c-24.455-6.281-37.74-23.203-41.608-43.061a55.89 55.89 0 0 1 0-22.939l0.504-2.07c2.09-8.088 5.213-15.911 10.138-22.435 9.129-12.517 23.159-22.168 40.863-23.732 9.657-14.346 23.951-21.639 38.533-23.493l1.057-0.241c8.84-1.035 17.152 0 25.224 2.6 7.543 2.359 15.351 6.788 21.621 12.517 15.087 13.046 23.927 33.121 17.705 57.36z m-34.905 560.218a303.875 303.875 0 0 1-18.185 8.351l-2.114 1.036c-10.402 3.635-21.597 7.823-32.286 10.952l-355.515 95.44-3.123 0.265c-15.638 3.394-31.758 0.505-44.755-7.053-14.077-8.328-24.479-21.615-29.164-38.08l-95.25-356.243c-27.074-101.193 5.717-182.527 64.79-234.447 26.305-22.674 57.535-40.15 90.854-50.572 33.32-10.182 68.705-14.105 103.563-10.182 74.977 8.088 146.805 49.032 186.898 131.449 27.074-1.59 53.619 1.035 79.396 7.293 19.242 5.199 37.476 12.517 55.445 22.168 34.353-54.519 87.443-82.922 142.6-88.675 28.636-2.888 57.535 0 85.377 8.088 27.074 8.882 53.115 22.674 74.207 41.449 48.911 43.303 76.249 110.315 53.859 193.503l-74.951 281.168-0.529 0.77v1.035c-4.156 13.046-12.492 23.758-23.158 31.027l-3.387 1.853c-11.963 7.293-26.545 9.917-41.127 6.764l-2.09-0.505-211.355-56.854zM499.783 517.974c-8.84 0.528-17.704 0.794-27.05 2.888-17.705 3.635-35.674-5.753-42.16-23.469-25.777-69.901-80.164-104.586-137.195-110.869-24.96-2.336-50.472 0-74.423 7.582-23.709 7.823-46.051 19.834-64.285 35.721-39.566 34.686-61.186 90.505-42.448 160.382l92.68 345.846 299.06-80.084c-29.956-16.439-52.586-39.908-68.728-67.011v-0.53c-18.738-30.257-28.084-66.242-28.084-101.963 0-35.745 8.84-71.202 27.578-102.494 15.087-26.09 36.972-49.029 65.055-65.999z" /></svg>