<?xml version="1.0" standalone="no"?><!DOCTYPE svg PUBLIC "-//W3C//DTD SVG 1.1//EN" "http://www.w3.org/Graphics/SVG/1.1/DTD/svg11.dtd"><svg class="icon" width="200px" height="200.00px" viewBox="0 0 1024 1024" version="1.1" xmlns="http://www.w3.org/2000/svg"><path fill="#515151" d="M931.17 497.906c8.516-8.803 22.873-8.803 31.634 0 8.786 8.803 8.786 22.918 0 31.991L713.928 779.243c-8.761 8.78-23.143 8.78-32.174 0-8.491-8.778-8.491-23.163 0-31.967l249.416-249.37zM214.849 613.53l183.473 183.321 123.371-123.37c9.031-8.803 16.492-19.697 22.333-30.64h0.54c5.841-11.189 9.817-22.918 12.222-35.164 4.27-20.262 13.817-38.09 27.118-51.172 13.302-13.303 30.849-23.165 51.047-27.172v0.564c11.192-2.679 22.873-6.417 33.525-11.753l1.594-1.057c10.896-5.852 21.278-13.844 30.31-23.189h0.269c9.277-8.779 16.737-19.451 22.603-30.369 5.842-10.893 10.381-23.189 12.737-35.436 4-19.72 13.841-37.573 27.143-50.606 13.032-13.844 30.824-23.459 50.507-27.172 12.222-2.41 23.953-6.418 35.659-12.787 10.332-5.361 20.713-13.353 30.014-22.648l0.27-0.27v0.27c25.008-25.599 37.77-58.623 37.77-91.919 0-71.927-58.237-130.035-129.236-130.035-32.959 0-65.402 12.272-90.411 36.518l-1.055 1.574h-0.515c-9.596 9.885-17.032 19.45-22.357 30.394-5.841 10.918-10.111 21.59-12.492 32.779l-0.245 3.172c-4 19.745-13.326 36.787-27.143 50.656-13.302 13.303-30.824 22.623-50.507 27.172-11.706 1.844-23.141 6.369-34.039 11.705l-1.618 1.057c-10.603 5.336-20.199 12.269-28.691 20.779l-1.595 1.623c-9.571 9.566-17.032 19.697-22.873 30.64-5.865 10.376-9.571 21.025-12.222 32.484l-0.564 2.951c-3.976 20.238-13.277 37.82-27.118 51.148-12.737 13.302-30.309 22.646-50.505 26.631-11.168 2.115-22.874 6.393-33.525 12.245l-2.111 0.542c-10.627 5.877-20.713 13.057-29.769 22.107l-0.54 0.271L214.849 613.53z m151.545 214.747l-183.449-182.78-49.991 50.091 6.921 6.933c14.897 14.657 14.897 38.361 0 53.018l-31.927 31.967 116.473 116.409 30.04-30.368 1.864-1.574c14.897-14.656 38.285-14.656 53.182 0l6.896 6.934 49.991-50.63zM55.574 667.088c76.594-76.746 153.164-153.739 229.979-230.461 14.381-14.385 30.849-26.361 47.881-35.705l2.111-1.328c17.032-8.508 35.659-14.926 54.286-18.91 4.517-0.788 9.031-3.197 12.222-6.664 3.166-2.951 5.302-7.475 6.086-12.516l1.35-3.221c3.436-18.369 10.087-35.951 19.118-52.746 9.326-17.582 21.302-33.812 35.659-48.222l2.65-1.846c13.818-13.868 28.984-25.056 45.206-34.106l2.405-0.787c17.254-9.074 35.34-15.492 53.967-19.18 4.786-0.836 9.031-2.951 12.222-6.419 3.19-2.925 5.571-7.45 6.921-12.515l0.54-3.738c3.977-18.369 10.381-35.976 19.658-52.23 9.031-17.557 21.302-34.353 35.366-48.738l2.404-1.869c39.34-38.361 90.927-57.541 142.513-57.541 112.229 0 204.211 91.648 204.211 204.616 0 52.476-19.658 104.681-59.563 144.639h-0.54 0.54v0.296c-14.627 14.361-30.849 26.09-48.372 35.435-17.842 9.32-36.714 16.254-56.395 20.238v0.271c-4.762 1.056-9.033 3.197-12.223 6.393-3.19 3.738-5.596 7.721-6.651 12.516-3.459 19.451-10.381 38.361-20.198 56.238v0.271c-8.761 17.287-21.032 33-35.364 47.681-14.357 14.902-30.309 26.115-47.881 35.951l-2.109 1.057c-17.573 9.344-35.636 15.713-54.237 18.91v0.27c-5.081 1.082-9.057 3.467-12.493 6.393-2.945 3.467-5.865 7.475-6.649 12.271-3.732 19.697-10.652 38.631-20.199 56.484-9.08 17.312-20.762 33.566-35.659 47.681-77.11 77.804-154.218 155.582-231.599 232.846-14.627 14.656-38.555 14.656-52.887 0l-0.564-0.516-6.355-6.393-31.93 31.967c-14.872 14.41-38.259 14.41-53.157 0L28.726 814.138c-14.897-14.656-14.897-38.361 0-53.017l1.841-1.574 30.063-30.394-6.919-6.934c-14.898-14.926-14.898-38.361 0-53.804l1.863-1.327z m883.572-83.681c8.516-8.779 22.873-8.779 31.904 0 8.516 8.828 8.516 23.189 0 31.992L799.308 786.966c-8.81 8.803-22.873 8.803-31.413 0a22.217 22.217 0 0 1 0-31.943l171.251-171.616zM296.205 233.338c8.516-8.507 22.873-8.507 31.904 0 8.516 9.321 8.516 23.46 0 31.967L79.234 514.701c-9.278 9.32-23.659 9.32-31.904 0-9.057-8.557-9.057-22.648 0-31.722l248.875-249.641z m-85.871-7.721c8.761-8.51 23.118-8.51 31.904 0 8.761 8.533 8.761 23.458 0 31.967L71.256 428.881c-9.031 9.074-23.388 9.074-31.904 0-8.786-8.238-8.786-22.869 0-31.697l170.982-171.567z" /></svg>