<?xml version="1.0" standalone="no"?><!DOCTYPE svg PUBLIC "-//W3C//DTD SVG 1.1//EN" "http://www.w3.org/Graphics/SVG/1.1/DTD/svg11.dtd"><svg class="icon" width="200px" height="200.00px" viewBox="0 0 1024 1024" version="1.1" xmlns="http://www.w3.org/2000/svg"><path fill="#515151" d="M509.507 626.68h1.322c9.477 0 18.13-7.847 25.687-20.29 9.751-15.967 15.686-39.256 15.686-64.969 0-25.737-5.935-48.477-15.686-64.993-7.556-12.719-16.734-20.565-26.21-20.565-8.903 0-18.629 7.846-26.185 20.565-9.751 16.517-15.686 39.256-15.686 64.993 0 25.713 5.935 49.001 15.686 64.969 7.256 12.442 16.733 20.29 25.386 20.29zM510.305 17c136.712 0 260.756 55.498 350.185 145.38 89.703 90.156 145.092 213.871 145.092 350.855 0 137.009-55.388 260.999-145.092 350.905-89.429 90.156-213.473 145.38-350.185 145.38-136.687 0-260.457-55.223-350.16-145.38C70.442 774.233 15.054 650.243 15.054 513.234c0-136.984 55.388-260.699 145.092-350.855C249.849 72.498 373.618 17 510.305 17z m296.418 199.527C730.536 140.44 625.97 93.337 510.305 93.337c-115.639 0-220.48 47.103-296.391 123.19-75.64 75.815-122.697 180.864-122.697 296.707 0 116.169 47.057 220.943 122.697 297.005 75.911 75.815 180.752 122.917 296.391 122.917 115.664 0 220.231-47.102 296.418-122.917 75.638-76.062 122.647-180.836 122.647-297.005 0-115.843-47.009-220.892-122.647-296.707z m-273.45 451.857v64.419c22.968-8.646 44.864-28.686 61.623-57.097 24.564-40.905 39.702-98.277 39.702-162.471 0-63.869-15.138-121.292-39.702-162.421-22.719-37.632-52.42-60.895-84.591-60.895-31.871 0-61.847 23.264-84.566 60.895-24.564 41.129-39.702 98.552-39.702 162.421 0 64.194 15.138 121.566 39.702 162.471 17.282 28.411 38.38 48.451 61.598 57.097v-64.419c-16.759-6.497-31.348-20.04-42.395-38.706-13.542-23.014-21.896-53.899-21.896-88.257 0-34.108 8.354-65.243 21.896-88.009 15.936-26.536 38.904-43.053 65.364-43.053 26.485 0 49.453 16.517 65.388 43.053 13.543 22.765 22.445 53.9 22.445 88.009 0 34.358-8.902 65.243-22.445 88.257-11.073 18.666-25.637 32.209-42.421 38.706z m-21.871 113.72h-2.445c-48.63-0.275-91.848-31.96-122.123-82.86-28.629-47.902-46.484-113.97-46.484-186.01 0-71.99 17.854-137.784 46.484-185.985 30.799-51.425 74.566-82.835 123.47-82.835 49.453 0 92.696 31.41 123.495 82.835 29.178 48.2 46.485 113.995 46.485 185.985 0 72.04-17.307 138.108-46.485 186.01-30.274 50.901-73.491 82.585-122.397 82.86z" /></svg>