<?xml version="1.0" standalone="no"?><!DOCTYPE svg PUBLIC "-//W3C//DTD SVG 1.1//EN" "http://www.w3.org/Graphics/SVG/1.1/DTD/svg11.dtd"><svg class="icon" width="200px" height="200.00px" viewBox="0 0 1024 1024" version="1.1" xmlns="http://www.w3.org/2000/svg"><path fill="#515151" d="M713.645 411.799c11.659 3.594 21.933 9.987 30.261 18.896v-0.565c13.606 13.89 22.471 32.811 22.471 53.967s-8.866 40.051-22.471 53.427c-13.888 13.888-32.746 22.516-53.834 22.516-20.574 0-39.716-8.628-53.604-22.516l-1.102-1.695c-13.042-13.35-20.55-31.707-20.55-51.733 0-21.155 8.071-40.077 21.651-53.967l1.691-1.386c8.328-7.779 18.015-13.35 28.852-16.945V337.78H342.213v74.018c11.659 3.594 21.626 9.987 29.979 18.896v-0.565c13.888 13.89 22.19 32.811 22.19 53.967s-8.302 40.051-22.19 53.427c-13.888 13.888-32.772 22.516-53.322 22.516-21.088 0-39.972-8.628-53.834-22.516l-1.384-1.695c-12.76-13.35-20.857-31.707-20.857-51.733 0-21.155 8.327-40.077 22.241-53.967l1.64-1.386c8.328-7.779 17.526-13.35 28.595-16.945v-74.018H182.017v596.944h644.882V337.781H713.645v74.018zM373.857 759.758c-89.399-89.859 28.032-227.266 130.473-165.213 102.723-62.053 220.435 75.354 130.755 165.213L521.011 869.642c-9.455 9.448-23.881 9.448-32.798 0l-113.818-109.32-0.538-0.564z m33.31-33.12l97.163 93.761 97.188-93.453 0.538-0.308c54.398-54.506-26.11-132.657-82.173-85.392h-0.564c-8.328 7.24-21.088 7.24-29.979 0-56.063-47.265-136.57 31.451-82.173 85.392z m259.844-467.009v-40.616c0-43.954-18.039-84.57-46.634-113.479l-1.1-1.412c-29.699-29.475-70.235-47.856-114.947-47.856-44.429 0-84.966 18.381-114.38 47.856h-0.284c-29.133 29.191-47.454 70.116-47.454 114.891v40.616h324.799z m-371.74 0v-40.616c0-57.869 23.599-110.449 61.369-148.267C394.381 32.646 447.139 9 504.33 9c57.754 0 109.949 23.646 147.691 61.746l1.691 1.386c36.897 38.126 59.932 89.859 59.932 146.881v40.616h152.688c21.677 0 38.87 17.51 38.87 39.23v675.097c0 21.694-17.193 39.512-38.87 39.512H142.89c-21.677 0-39.15-17.818-39.15-39.512V298.859c0-21.72 17.473-39.23 39.15-39.23h152.381z m24.728 195.249h-2.231c-7.226 0.566-13.58 3.621-18.295 7.524l-1.127 1.104c-4.995 5.315-8.609 12.246-8.609 20.591 0 7.779 3.049 14.454 7.508 18.922l1.102 1.643c4.971 4.493 12.478 8.113 20.524 8.113 7.791 0 15.015-3.62 20.55-8.113 5.022-5.546 8.353-12.195 8.353-20.565 0-8.344-3.331-15.276-8.353-20.591v-0.565c-4.998-4.441-12.223-7.497-19.422-8.063z m371.175 0h-1.69c-7.458 0.566-13.864 3.621-18.579 7.524l-1.127 1.104c-5.278 5.315-8.328 12.246-8.328 20.591 0 7.779 2.793 14.454 7.508 18.922l0.82 1.643c5.304 4.493 12.504 8.113 20.294 8.113 8.609 0 15.811-3.62 20.55-8.113 5.255-5.546 8.586-12.195 8.586-20.565 0-8.344-3.331-15.276-8.586-20.591v-0.565c-4.739-4.441-11.401-7.497-19.448-8.063z" /></svg>