<?xml version="1.0" standalone="no"?><!DOCTYPE svg PUBLIC "-//W3C//DTD SVG 1.1//EN" "http://www.w3.org/Graphics/SVG/1.1/DTD/svg11.dtd"><svg class="icon" width="200px" height="200.00px" viewBox="0 0 1024 1024" version="1.1" xmlns="http://www.w3.org/2000/svg"><path fill="#515151" d="M238.209 35c125.289 0 228.522 102.904 228.522 229.509 0 125.487-103.233 229.255-228.522 229.255-126.354 0-229.333-103.185-229.333-229.255C8.875 137.904 112.438 35 238.209 35z m22.816 79.23v300.026c73.318-11.025 128.813-75.419 128.813-149.746 0-75.141-55.495-139.815-128.813-150.28z m-46.419 300.025V114.23c-73.064 10.466-128.558 75.14-128.558 150.28 0 74.605 54.936 138.721 128.558 149.745z m679-80.677l-0.837-1.092h-0.277l-1.092-0.813c-60.414-60.533-160.959-61.651-222.765-1.092l-1.371 1.651L526.079 473.39l224.696 225.167 141.183-141.49c60.692-60.815 61.529-162.092 1.648-223.489zM493.122 506.44L351.405 648.184c-30.777 30.813-46.166 72.091-46.166 112.811 0 87.815 70.884 159.094 158.5 159.094 40.918 0 82.115-15.953 112.615-46.791L717.818 731.58 493.122 506.44z m455.954-227.045c89.01 91.905 87.922 241.626-2.459 332.718L631.011 928.066c-45.608 46.256-106.579 69.653-167.272 69.653-130.207 0-235.974-106.791-235.974-236.723 0-60.534 23.094-121.905 69.234-167.883l315.327-316.486 2.18-1.651c91.774-89.721 241.732-88.63 332.11 1.651l2.46 2.768z" /></svg>