<?xml version="1.0" standalone="no"?><!DOCTYPE svg PUBLIC "-//W3C//DTD SVG 1.1//EN" "http://www.w3.org/Graphics/SVG/1.1/DTD/svg11.dtd"><svg class="icon" width="200px" height="200.00px" viewBox="0 0 1024 1024" version="1.1" xmlns="http://www.w3.org/2000/svg"><path fill="#515151" d="M96.2 267.291h138.142l208.23-149.99c-1.987-7.521-3.003-14.789-3.003-23.307 0-21.573 8.778-42.15 23.054-56.431h0.485C477.13 23.282 497.39 14 519.405 14c21.784 0 42.068 9.282 56.828 23.563 14.53 14.281 23.516 34.859 23.516 56.431 0 8.518-1.247 15.786-3.511 23.307l208.761 149.99h137.657c20.005 0 35.553 16.042 35.553 35.346v657.547c0 20.091-15.548 35.368-35.553 35.368H96.2c-19.797 0-35.551-15.277-35.551-35.368V302.637c0-19.304 15.754-35.346 35.551-35.346z m210.241 0h425.977L573.969 153.179c-14.253 13.033-33.287 21.805-54.564 21.805-20.744 0-40.288-8.773-54.31-21.805L306.441 267.291z m239.76-199.637v-0.231c-6.745-6.782-16.032-10.786-26.797-10.786-10.488 0-19.751 4.004-26.772 10.786v0.231c-6.493 6.782-10.997 16.295-10.997 26.341 0 7.523 1.733 14.049 4.991 19.559v0.486h0.53v0.532a42.457 42.457 0 0 0 5.476 6.736c7.021 6.782 16.285 11.319 26.772 11.319 10.765 0 20.051-4.537 26.797-11.319 2.495-2.245 4.02-4.49 6.006-6.736v-1.018h0.508c2.75-5.51 4.505-12.036 4.505-19.559 0.001-10.046-3.996-19.559-11.019-26.341z m227.75 638.727c-7.762 26.087-32.503 124.391 13.514 218.204h120.147v-586.58H131.221v586.58h120.655c45.3-93.535 20.999-192.116 13.006-218.204-12.012-6.758-24.025-15.53-33.796-25.807-29.014-29.095-47.056-69.463-47.056-113.349 0-21.827 4.759-42.404 12.266-61.454 8.016-19.559 20.028-37.105 34.79-52.15 8.27-8.031 21.784-8.031 29.8 0 8.247 8.519 8.247 22.06 0 30.091-11.019 10.788-19.52 23.819-25.549 38.1-5.475 14.05-8.732 29.118-8.732 45.414 0 32.336 13.237 61.94 34.281 83.258 21.507 21.318 51.053 34.834 83.578 34.834 32.295 0 61.817-13.516 83.093-34.834 21.276-21.318 34.559-50.922 34.559-83.258 0-11.782 9.24-21.341 21.253-21.341 11.781 0 21.277 9.56 21.277 21.341 0 43.886-18.019 84.253-47.057 113.349-29.038 29.327-69.325 47.381-113.124 47.381-10.995 0-21.761-1.481-32.041-3.751 9.034 45.901 16.54 123.14-14.76 200.381H741.45c-31.556-77.241-24.046-154.48-15.037-200.381-10.004 2.27-21.022 3.751-31.788 3.751-44.307 0-84.364-18.054-113.378-47.381-28.529-29.095-46.548-69.463-46.548-113.349 0-11.782 9.24-21.341 21-21.341 11.55 0 21.043 9.56 21.043 21.341 0 32.336 13.514 61.94 34.536 83.258 21.53 21.318 51.076 34.834 83.347 34.834 32.803 0 62.326-13.516 83.347-34.834 21.507-21.318 34.536-50.922 34.536-83.258 0-16.295-3.257-31.364-9.009-45.414-5.752-14.281-14.507-27.313-25.526-38.1-8.524-8.031-8.524-21.571 0-30.091 8.503-8.031 21.507-8.031 29.777 0 14.784 15.045 26.775 32.592 34.79 52.15 7.785 19.05 12.521 39.627 12.521 61.454 0 43.886-18.527 84.253-47.31 113.349-10.006 10.277-21.278 18.541-33.8 25.807z m-79.328-176.283c20.259 0 36.545 16.803 36.545 37.127 0 20.323-16.286 36.848-36.545 36.848-20.282 0-37.052-16.525-37.052-36.848s16.77-37.127 37.052-37.127z m-350.16 0c-20.536 0-36.545 16.803-36.545 37.127 0 20.323 16.009 36.848 36.545 36.848 20.028 0 36.545-16.525 36.545-36.848s-16.517-37.127-36.545-37.127z" /></svg>