<?xml version="1.0" standalone="no"?><!DOCTYPE svg PUBLIC "-//W3C//DTD SVG 1.1//EN" "http://www.w3.org/Graphics/SVG/1.1/DTD/svg11.dtd"><svg class="icon" width="200px" height="200.00px" viewBox="0 0 1024 1024" version="1.1" xmlns="http://www.w3.org/2000/svg"><path fill="#515151" d="M894.837 637.377c-49.146-9.394-94.394-15.496-138.572-16.312-65.707-1.659-130.292 8.016-201.782 34.029-26.497 10.211-54.369 9.93-80.331 0-71.745-26.013-135.795-35.688-201.5-34.029-44.434 0.817-89.988 6.918-139.135 16.312 15.465 11.079 31.465 22.948 47.49 34.31 45.248 31.526 92.738 60.297 139.133 86.285 26.497 14.653 49.121 23.231 74.522 24.328 27.312 1.123 59.872-7.173 104.891-25.426 9.936-4.161 20.153-3.599 29.248 0 44.995 18.253 77.299 26.549 104.636 25.426 25.401-1.098 48.84-9.675 74.802-24.328 46.369-25.988 94.394-54.759 139.133-86.285 16.28-11.362 31.745-23.231 47.465-34.31zM466.152 467.283c-18.751-11.335-45.274-27.111-74.242-20.474-32.025 7.48-56.866 13.836-80.611 19.937-86.14 22.107-159.54 41.202-263.896 41.202-37.248 0-51.898-46.768-25.095-68.594 16.815-16.057 152.636-142.192 248.686-212.139 118.7-86.285 188.814-34.029 225.808-6.663 18.777 13.836 15.465 14.679 35.337 0 36.433-27.366 106.241-79.622 225.221 6.663 102.7 74.67 250.113 212.956 250.113 212.956 26.497 24.608 7.694 67.495-25.962 67.495v0.282c-104.891 0-178.317-19.095-263.896-41.202-24-6.101-49.121-12.458-81.144-19.937-28.97-6.637-55.492 9.139-73.963 20.474-38.115 22.388-58.52 22.388-96.356 0z m64.305-71.351c29.274-16.874 69.019-37.349 123.388-24.635 26.242 5.54 55.492 13.275 82.547 20.472 46.369 11.617 88.891 22.415 134.727 29.588-48.613-42.3-109.326-94.862-159.568-131.368-72.305-52.537-112.331-22.95-133.069-6.918-19.567 14.092-38.904 30.991-64.304 30.991-25.122 0-44.995-16.9-63.772-30.991-20.968-16.032-61.273-45.619-133.604 6.918-49.656 36.505-110.955 89.068-159.54 131.368 45.836-7.173 88.331-17.972 134.725-29.588 27.592-7.198 56.56-14.933 82.802-20.472 52.458-12.151 91.923 6.663 120.916 23.256 19.873 11.615 14.907 12.994 34.752 1.379zM757.36 543.893c74.014 1.098 148.254 14.934 232.432 34.284 29.834 6.637 40.841 45.388 17.681 66.399-35.337 32.088-75.082 62.799-115.948 90.727-48.025 33.187-97.732 63.896-145.197 90.421-36.433 20.754-70.113 33.187-110.394 34.31-35.337 0.842-73.426-6.637-121.756-25.732-48.307 19.095-86.676 26.575-121.173 25.732-40.306-1.123-73.961-13.555-110.98-34.31-47.184-26.525-96.611-57.234-145.197-90.421-40.305-27.392-78.953-57.54-113.706-88.812-24.306-19.607-16.56-61.114 15.465-68.313 84.178-19.35 158.419-33.187 232.406-34.284 75.082-2.221 148.509 8.577 229.936 38.164 9.094 3.599 17.96 3.599 26.775 0 81.148-29.588 154.574-40.386 229.656-38.165z" /></svg>