<?xml version="1.0" standalone="no"?><!DOCTYPE svg PUBLIC "-//W3C//DTD SVG 1.1//EN" "http://www.w3.org/Graphics/SVG/1.1/DTD/svg11.dtd"><svg class="icon" width="200px" height="200.00px" viewBox="0 0 1024 1024" version="1.1" xmlns="http://www.w3.org/2000/svg"><path fill="#515151" d="M668.441 214.101c22.791 29.408 40.642 61.86 51.607 95.962 45.531 15.123 88.352 41.232 124.564 77.769h0.279c63.36 63.23 95.19 146.531 95.19 230.39 0 81.65-31.274 164.394-93.29 227.345l-1.899 2.485h-0.279c-63.105 63.232-146.52 94.822-229.377 94.822v0.304c-70.803 0-142.139-23.09-200.838-69.853l-38.946 39.05 44.972 45.368c14.814 15.123 14.814 39.582 0 54.705-15.371 15.402-40.061 15.402-54.875 0l-44.999-44.53-37.554 37.375c-15.118 15.402-39.529 15.402-54.622 0-15.371-15.122-15.371-39.582 0-54.705l37.301-38.212-44.441-44.532c-15.372-15.121-15.372-39.583 0-54.704 14.838-15.123 39.528-15.123 54.342 0l44.974 44.808 39.529-39.329c-23.323-28.848-40.618-61.301-52.14-95.404-45.531-15.654-88.327-41.763-124.539-78.047l-0.557-0.558c-63.105-63.486-94.379-146.252-94.379-229.553S120.017 248.733 183.4 185.25c63.105-64.068 146.47-95.404 229.351-95.404 71.337 0 142.113 23.09 200.559 69.548L678.873 93.4H605.36c-21.423 0-38.971-16.746-38.971-38.745 0-21.187 17.548-39.024 38.971-39.024H773.809l1.646 1.091h3.849l3.292 1.115h0.532c1.671 0.534 3.292 0.813 4.963 1.625l1.647 0.837 1.088 0.533c1.393 0.863 3.292 1.396 4.381 3.045l1.116 0.533 1.088 0.837 0.557 0.558 1.621 1.649 1.671 1.345 0.532 1.142 1.089 1.09 0.861 0.813c0.81 1.624 1.899 3.019 2.458 4.669h0.53l0.557 1.649 0.557 0.837c0.557 1.624 1.089 3.019 1.647 5.202l0.277 0.558 0.532 3.299 0.279 3.578 0.532 2.207v168.503c0 21.163-16.992 39.051-38.668 39.051-21.677 0-38.694-17.888-38.694-39.051v-73.683l-65.308 65.438z m68.879 188.321l0.277 12.636h-0.277c0 83.858-31.554 166.602-94.659 230.111-63.637 63.23-146.773 95.404-229.909 95.404-4.126 0-8.23 0-12.636-0.558 9.901 18.396 22.791 36.005 38.44 51.127l1.621 1.928 0.557 0.533c48.291 48.387 111.396 72.035 174.502 72.035v0.279c63.105 0 126.742-23.927 174.756-72.847v-0.279l1.949-1.649c47.152-47.575 70.5-110.501 70.5-172.92 0-63.51-24.158-127.552-72.448-175.66-15.627-15.68-33.733-29.408-52.673-40.14z m-77.11 12.636c0-13.727-1.089-27.758-3.267-41.487-13.725-2.485-27.982-3.576-41.707-3.576-63.105 0-126.767 24.46-175.059 72.568s-72.424 111.617-72.424 175.66a260.11 260.11 0 0 0 3.292 41.232c14.257 2.207 27.982 3.857 41.707 3.857 63.384 0 126.742-24.485 174.755-72.593 48.57-48.642 72.703-112.151 72.703-175.661z m-32.363-122.35c-10.408-18.117-23.601-36.005-38.947-51.635l-1.393-1.142-0.532-0.812c-48.013-47.829-111.118-72.289-174.223-72.289s-126.767 24.46-174.78 73.101l-0.277-0.533v0.533c-48.293 48.386-72.424 111.617-72.424 175.127 0 64.066 24.132 127.019 72.424 175.66h0.277c16.183 15.96 33.756 29.433 52.697 40.139-0.279-4.388-0.279-8.778-0.279-12.635 0-83.859 31.831-167.16 94.911-230.39 63.662-63.486 147.051-95.658 229.934-95.658 4.103 0.001 8.762 0.001 12.612 0.534zM811.11 55.746v0.558-0.558z" /></svg>