<?xml version="1.0" standalone="no"?><!DOCTYPE svg PUBLIC "-//W3C//DTD SVG 1.1//EN" "http://www.w3.org/Graphics/SVG/1.1/DTD/svg11.dtd"><svg class="icon" width="200px" height="200.00px" viewBox="0 0 1024 1024" version="1.1" xmlns="http://www.w3.org/2000/svg"><path fill="#515151" d="M267.826 46.056C267.826 24.852 285.136 7 306.83 7c21.415 0 38.446 17.852 38.446 39.056v91.621c36.241 3.579 68.63 18.157 97.194 39.892 29.118 22.551 53.549 52.008 73.317 85.299h28.841c19.768-33.291 43.92-62.748 73.015-85.299 28.283-21.736 60.976-36.313 97.218-39.892V46.056C714.86 24.852 732.169 7 753.838 7c21.441 0 38.446 17.852 38.446 39.056v102.616c20.858 8.278 39.004 20.924 54.921 36.034 28.839 30.015 47.239 70.722 47.239 115.567 0 45.683-18.399 86.136-47.239 115.542-29.932 29.736-70.304 47.893-115.593 47.893h-402.81c-45.314 0-86.244-18.157-115.338-47.893-29.652-29.406-48.051-69.858-48.051-115.542 0-44.845 18.399-85.552 48.051-115.567 15.383-15.109 34.036-27.755 54.362-36.034V46.056zM919.154 650.25v87.76c0 16.228-9.604 29.991-23.063 35.502-49.42 25.292-95.57 57.492-136.475 94.922-41.437 38.218-77.729 81.971-107.913 129.026-7.147 12.113-19.768 18.436-32.947 18.436H441.099c-14.573 0-27.194-8.253-33.758-20.34-29.956-46.801-65.918-89.438-106.543-127.121-41.21-37.71-88.425-69.909-138.402-96.014-13.179-6.628-20.858-20.086-20.858-34.41v-87.76c0-20.899 16.727-38.802 38.142-38.802h701.027c21.441 0 38.447 17.902 38.447 38.801z m-77.425 64.906v-25.85H218.406v25.85c48.862 26.97 93.34 59.448 134.549 96.041 40.651 37.964 77.982 80.041 109.283 126.842h135.637c31.857-46.801 68.402-88.878 109.839-126.842 40.651-36.593 85.66-69.072 134.015-96.041zM315.066 215.813H313.418l-0.558 0.279h-0.532c-17.056 3.301-32.389 11.554-43.946 23.642-15.916 15.16-25.267 36.592-25.267 60.539 0 23.667 9.352 45.683 25.267 60.818 15.105 15.109 36.52 25.038 60.419 25.038H731.611c23.899 0 45.289-9.929 60.394-25.038 15.664-15.135 24.989-37.151 24.989-60.818 0-23.946-9.325-45.379-24.989-60.539-11.785-12.087-26.913-20.34-44.199-23.642l-1.09-0.279h-1.392c-4.107-1.092-9.049-1.092-13.712-1.092-24.71 0-46.961 9.345-66.729 24.48-25.8 19.807-47.24 48.147-63.435 80.319-6.843 13.232-20.326 20.647-34.315 20.647v0.305h-74.13c-15.941 0-30.209-10.462-35.709-24.506-16.194-29.989-36.773-58.049-61.762-76.764-19.768-15.135-42.018-24.48-66.729-24.48-4.941-0.001-9.327-0.001-13.737 1.091z" /></svg>