<?xml version="1.0" standalone="no"?><!DOCTYPE svg PUBLIC "-//W3C//DTD SVG 1.1//EN" "http://www.w3.org/Graphics/SVG/1.1/DTD/svg11.dtd"><svg class="icon" width="200px" height="200.00px" viewBox="0 0 1024 1024" version="1.1" xmlns="http://www.w3.org/2000/svg"><path fill="#515151" d="M115.034 910.998h440.623c15.781 0 55.721-113.71 92.094-217.443 14.252-40.021 27.495-78.277 40.198-109.616 15.779-37.974 39.707-66.772 64.103-80.3 15.263-8.658 31.066-11.976 46.563-9.953 17.071 2.307 32.075 10.706 44.028 25.247 15.263 18.869 25.194 50.49 25.194 95.099v296.967h33.32v-385.95c0-68.067 10.144-121.85 19.325-166.953 17.822-90.77 27.99-141.755-120.599-224.596l-297.13 587.323c-1.808 3.082-3.569 5.364-5.612 8.164-13.971 16.305-30.009 30.586-47.831 40.538-21.626 12.47-45.529 19.105-68.682 19.105-35.621-0.494-67.156-17.34-89.556-44.091L146.57 788.136c-14.253 6.117-25.947 13.762-34.095 21.669-31.535 29.81-20.851 71.101 2.559 101.193z m440.624 72.136H99.279c-9.698 0-19.372-3.811-26.487-11.458-17.282-18.352-31.019-39.009-39.66-60.678-11.201-25.763-14.77-53.031-10.191-79.524 4.062-26.798 17.306-52.255 40.2-73.924 14.746-14.023 33.836-26.257 56.965-36.209l3.569-0.753 168.923-51.502c16.272-6.117 35.106 0.259 43.769 15.552 25.947 45.361 71.477 38.233 104.046 0l312.18-615.863h0.493c8.641-17.597 30.525-24.491 47.831-15.833 229.481 117.78 215.722 187.893 189.774 318.895-8.124 42.09-17.799 91.782-17.799 153.213v422.135c0 20.422-16.272 35.95-35.597 35.95H832.453c-20.076 0-36.137-15.528-36.137-35.95V614.031c0-25.245-3.311-40.797-8.381-48.444l-1.269 0.518c-10.941 6.117-22.916 22.162-32.052 44.609-12.21 30.586-25.454 67.783-39.19 107.051-44.521 125.92-93.62 265.369-159.766 265.369z" /></svg>