<?xml version="1.0" standalone="no"?><!DOCTYPE svg PUBLIC "-//W3C//DTD SVG 1.1//EN" "http://www.w3.org/Graphics/SVG/1.1/DTD/svg11.dtd"><svg class="icon" width="200px" height="200.00px" viewBox="0 0 1024 1024" version="1.1" xmlns="http://www.w3.org/2000/svg"><path fill="#515151" d="M612.06 237.663l-87.416 87.588 40.637 40.99c21.094-36.415 51.836-67.219 87.661-88.133l-40.882-40.445zM312.385 451.68H188.082v57.602c40.636-10.731 83.937-10.731 124.303 0V451.68z m-161.979-75.55h77.251v-52.213c-18.973-19.555-28.62-45.29-28.62-70.704 0-55.995 45.447-101.509 101.578-101.509 25.142 0 50.26 9.346 70.046 28.629l1.604 1.063c21.367 21.729 57.759 21.729 79.397 0 10.955-10.952 16.284-25.414 16.284-39.629 0-31.075-25.117-56.489-56.129-56.489-13.867 0-27.783 5.068-38.49 15.252l-1.062 1.064c-9.104 9.098-23.242 9.098-32.075 0-9.104-8.554-9.104-23.041 0-32.163l1.604-1.31c19.245-18.765 44.929-28.133 70.023-28.133 56.129 0.272 101.577 45.538 101.577 101.78 0 14.215-3.479 29.22-9.598 42.596l27.263 27.59 54.009-54.388 0.518-0.519c14.434-14.215 38.49-14.215 53.195 0l92.227 91.866c14.434-2.398 29.139-3.214 43.844-3.214v-0.519c61.213 0 122.427 23.041 169.996 69.097l1.63 2.126c47.568 47.415 71.081 109.567 71.081 171.965 0 62.151-23.513 124.276-71.081 171.718-47.052 47.936-109.327 70.976-171.625 70.976-62.003 0-124.302-23.041-171.08-70.976-47.865-47.713-71.108-109.839-71.108-171.718 0-15.006 1.086-29.716 3.726-44.451l-91.141-91.618-0.814-0.544c-14.409-14.734-14.409-38.566 0-53.3l55.094-54.339-23.538-23.857c-40.118 32.682-98.913 29.196-135.799-6.7l-1.086-1.088c-10.659-10.433-24.574-15.527-38.49-15.527-31.014 0-56.131 25.463-56.131 56.268 0 14.166 4.811 28.381 15.766 39.9h0.542c10.708 10.706 25.142 16.862 39.822 16.862 14.434 0 28.62-6.156 39.575-16.862 8.833-8.849 22.97-8.849 32.075 0 8.561 8.827 8.561 23.289 0 32.138-20.306 19.803-45.99 29.742-71.65 29.742-9.622 0-18.702-1.064-27.806-4.031v25.168h77.275c20.577 0 37.429 16.885 37.429 37.503v130.185c12.287 8.85 23.785 18.195 34.493 28.651 43.548 44.451 71.082 104.748 71.082 171.422 0 67.787-27.535 128.306-71.082 172.484-43.868 43.955-104.81 71.001-171.649 71.001-65.728 0-125.905-26.255-169.453-69.369l-2.147-1.632C34.642 872.198 7.649 811.679 7.649 743.891c0-66.675 26.992-126.971 71.107-171.422 10.683-10.456 21.663-19.801 34.221-28.379V413.633c0.001-20.618 17.099-37.503 37.429-37.503z m464.047 65.636l-0.543 1.607c-4.268 14.709-5.872 29.714-5.872 44.994 0 42.843 16.037 85.71 48.655 118.665v-0.272 0.272c32.617 32.41 75.4 48.997 118.158 48.997 42.783 0 86.083-16.587 118.676-48.997 32.371-32.954 48.655-75.822 48.655-118.665 0-43.115-16.284-85.984-48.655-118.64l-1.578-1.632c-32.643-31.594-74.859-47.936-117.098-47.936-73.501 0.001-140.068 50.086-160.398 121.607zM131.68 625.795c-29.953 30.803-48.655 72.286-48.655 118.096 0 47.144 18.702 88.677 48.655 119.208l2.122 1.607c29.681 29.74 71.132 46.872 116.554 46.872 45.991 0 88.23-18.195 118.158-48.479 30.496-30.531 49.198-72.064 49.198-119.208 0-45.81-18.702-87.293-49.198-118.096-66.814-66.699-174.017-62.669-236.834 0z" /></svg>