<?xml version="1.0" standalone="no"?><!DOCTYPE svg PUBLIC "-//W3C//DTD SVG 1.1//EN" "http://www.w3.org/Graphics/SVG/1.1/DTD/svg11.dtd"><svg class="icon" width="200px" height="200.00px" viewBox="0 0 1024 1024" version="1.1" xmlns="http://www.w3.org/2000/svg"><path fill="#515151" d="M496.203 195.533c8.257-46.33 30.563-88.789 62.498-120.227C599.706 33.94 656.385 8 718.604 8c21.466 0 38.793 17.896 38.793 39.151 0 22.07-17.327 38.871-38.793 38.871-41.031 0-78.174 17.412-105.155 43.861-17.073 17.132-29.724 38.617-36.889 62.34 17.377-4.963 34.983-8.552 52.844-9.901 41.589-4.455 82.314 0 120.854 10.182 20.655 6.083 32.773 27.314 26.955 48.264-5.488 20.416-26.955 31.998-47.61 27.034-29.724-8.833-60.54-11.862-91.943-8.833-29.699 3.335-59.424 11.862-88.614 27.009-11.026 5.829-24.237 5.829-35.796 0-29.166-15.146-58.915-23.674-88.614-27.009-31.401-3.029-62.498 0-91.941 8.833-20.376 4.964-41.819-6.619-47.891-27.034-5.513-20.95 6.605-42.182 27.514-48.264 38.54-10.182 79.291-14.637 120.575-10.182 20.629 1.91 41.842 6.592 63.31 13.211z m-42.681 465.285c21.493 0 39.099 17.946 39.099 38.897 0 21.229-17.606 39.177-39.099 39.177-21.188 0-38.794-17.948-38.794-39.177-0.001-20.95 17.605-38.897 38.794-38.897z m154.973 0c21.493 0 39.099 17.946 39.099 38.897 0 21.229-17.606 39.177-39.099 39.177-21.468 0-38.54-17.948-38.54-39.177 0-20.95 17.073-38.897 38.54-38.897zM376.187 536.44c21.468 0 38.54 17.361 38.54 38.895 0 21.232-17.073 38.593-38.54 38.593s-38.54-17.361-38.54-38.593c0-21.534 17.073-38.895 38.54-38.895z m155.253 0c21.188 0 38.515 17.361 38.515 38.895 0 21.232-17.327 38.593-38.515 38.593-22.052 0-39.099-17.361-39.099-38.593 0-21.534 17.047-38.895 39.099-38.895z m154.415 0c21.747 0 38.794 17.361 38.794 38.895 0 21.232-17.047 38.593-38.794 38.593-21.468 0-38.82-17.361-38.82-38.593 0.001-21.534 17.353-38.895 38.82-38.895zM531.44 343.102c79.265-52.948 165.949-52.948 238.38-20.976 33.84 14.892 64.403 36.707 89.173 64.276 25.024 27.009 44.308 58.447 56.146 93.754 26.447 78.353 13.211 169.078-64.403 246.872l-2.21 1.909-270.873 271.133c-12.652 12.957-29.699 19.296-46.213 19.296-17.377 0-34.145-6.339-46.797-19.296l-2.21-1.68-269.756-270.266-1.092-1.095c-77.639-77.793-90.291-168.518-64.403-246.872 11.56-35.307 31.35-66.746 56.146-93.754 24.77-27.569 55.028-49.385 89.173-64.276 72.127-31.973 159.115-31.973 238.939 20.975z m207.259 50.454c-54.774-24.54-122.479-22.045-182.488 27.594-13.77 12.117-35.237 12.677-49.82 0.255-60.313-49.894-127.993-52.388-182.513-27.849-24.21 10.207-46.238 26.498-63.843 45.795-17.912 18.736-31.657 41.366-39.633 65.091-17.353 52.134-7.724 113.61 45.678 167.678l1.651 0.84L531.44 937.448l262.033-263.393 1.651-1.095 1.092-0.84c53.428-54.068 63.311-115.545 45.705-167.678-8.282-23.725-22.027-46.355-39.633-65.091-17.91-19.297-39.632-35.589-63.589-45.795z" /></svg>