<?xml version="1.0" standalone="no"?><!DOCTYPE svg PUBLIC "-//W3C//DTD SVG 1.1//EN" "http://www.w3.org/Graphics/SVG/1.1/DTD/svg11.dtd"><svg class="icon" width="200px" height="200.00px" viewBox="0 0 1024 1024" version="1.1" xmlns="http://www.w3.org/2000/svg"><path fill="#515151" d="M152.541 680.935h7.212V536.871c0-114.232 77.869-215.375 187.461-245.206v-96.668c0-217.329 332.008-217.329 332.008 0v96.668c109.001 29.831 187.409 130.974 187.409 245.206v144.063h6.673c192.979 0 192.979 298.953 0 298.953H152.541c-193.004 0.001-192.414-298.952 0-298.952z m85.62 0h549.78V536.871c0-86.356-65.062-161.885-150.451-174.409-20.584-0.849-36.702-17.822-36.702-39.038V194.997c0-114.798-175.192-114.798-175.192 0v128.428c0 19.519-14.45 35.952-33.904 38.755-86.775 11.135-153.531 87.23-153.531 174.692v144.063z m157.432-286.996c12.781-1.954 24.459 7.251 26.127 20.059 1.386 12.267-7.52 24.791-20.301 26.179-48.123 5.606-84.824 48.475-84.824 96.694v89.159c0 12.807-10.574 23.685-23.356 23.685-12.78 0-23.638-10.878-23.638-23.685v-89.159c0-72.161 54.796-134.008 125.992-142.932z m477.711 365.559H152.54c-91.754 0-90.933 141.543 0 141.543h720.763c92.32 0 91.191-141.543 0.001-141.543z" /></svg>