<?xml version="1.0" standalone="no"?><!DOCTYPE svg PUBLIC "-//W3C//DTD SVG 1.1//EN" "http://www.w3.org/Graphics/SVG/1.1/DTD/svg11.dtd"><svg class="icon" width="200px" height="200.00px" viewBox="0 0 1024 1024" version="1.1" xmlns="http://www.w3.org/2000/svg"><path fill="#515151" d="M148.05991 341.089336l70.556242-19.266793 15.656831-58.004377-99.918926 26.95871 13.705853 50.31246z m194.618909 534.652257c0 13.226858-10.133891 23.938743-22.775755 23.938742-13.173858 0-23.586747-10.711885-23.586747-23.938742v-251.917294c0-12.641864 10.412888-23.379749 23.586747-23.379749 12.641864 0 22.775755 10.737885 22.775755 23.379749v251.917294z m146.306428-275.296043c23.611746 0 45.297513 9.899894 60.929346 25.587725l1.671982 1.370985c14.794841 15.687831 23.611746 36.579607 23.611746 59.958356 0 23.377749-9.3489 44.550521-25.283728 61.050344l-2.176977 1.395985 2.176977 1.90398 1.671982 1.673982c14.794841 15.358835 23.611746 36.553607 23.611746 59.934356 0 23.404749-9.3489 44.550521-25.283728 60.51735l-1.620983 1.370985c-15.377835 14.84984-36.228611 24.470737-59.308363 24.470737-23.584747 0-45.57651-10.153891-60.929345-25.841722-15.350835-15.966828-25.258729-37.112601-25.258729-60.51735 0-24.19174 9.906894-45.667509 25.258729-61.608338l1.924979-1.90398-1.924979-1.395985c-15.350835-16.499823-25.258729-37.672595-25.258729-61.050344 0-23.937743 9.906894-45.64151 25.258729-61.329341l0.835991-0.532994c15.631832-15.407834 37.039602-25.054731 60.093354-25.054731z m27.9947 58.588371c-7.118924-7.158923-16.999817-11.828873-27.9947-11.828873-10.969882 0-20.849776 4.67095-27.994699 11.828873-7.143923 6.878926-11.803873 17.032817-11.803873 28.329695 0 10.737885 4.65995 20.891776 11.803873 28.049699 6.611929 6.599929 15.377835 10.458888 25.258729 11.549876H491.748218c9.880894-1.091988 18.6448-4.949947 25.231729-11.549876 7.143923-7.158923 11.552876-17.312814 11.552875-28.049699s-3.848959-20.891776-10.435887-27.516704l-1.116988-0.812991z m-25.231729 114.153773H486.249277c-9.880894 1.092988-18.6458 4.925947-25.258729 11.525876-7.143923 7.158923-11.803873 17.058817-11.803873 28.608693 0 10.711885 4.65995 20.916775 11.803873 27.796702 7.143923 7.132923 17.024817 11.828873 27.994699 11.828872 10.412888 0 20.039785-4.441952 27.183708-10.737884l0.810992-1.091988c7.143923-6.878926 11.552876-17.083816 11.552875-27.796702 0-10.712885-3.848959-20.334782-10.435887-27.491705l-1.115989-1.116988c-6.587929-6.598929-15.351835-10.431888-25.232728-11.524876z m181.698048-87.754057c0-12.945861 10.437888-22.820755 23.611746-22.820755 12.616864 0 22.775755 9.874894 22.775755 22.820755v32.466651h32.65565c12.641864 0 23.611746 10.712885 23.611746 23.379749 0 12.641864-10.969882 23.353749-23.611746 23.353749h-32.65565v32.160655c0 12.945861-10.158891 23.659746-22.775755 23.659746-13.173858 0-23.611746-10.713885-23.611746-23.659746v-32.160655h-32.123655c-12.894861 0-23.332749-10.712885-23.33275-23.353749 0-12.666864 10.437888-23.379749 23.33275-23.379749h32.123655v-32.466651zM305.083223 299.026788l62.576328-17.083817 15.377834-58.283374-62.576327 17.312814-15.377835 58.054377z m148.763402-40.158569l63.133322-16.804819 15.377834-58.004377-62.854324 16.75382-15.656832 58.055376z m148.764402-39.599574l62.880324-17.362814 15.377835-57.72538-62.322331 16.75382-15.935828 58.334374z m149.069398-40.158569l99.917927-26.95871-13.452856-50.33846-70.810239 18.986796-15.654832 58.310374zM159.333788 533.912265V946.439833h728.214178V533.912265H159.333788z m108.405836-46.225504l-35.138623-60.51735H159.333788v60.51735h108.405836z m54.367416-60.51735l34.581628 60.51735h65.059302l-34.860626-60.51735h-64.780304z m153.730348 0l35.113623 60.51735h65.337298l-35.417619-60.51735h-65.033302z m154.237344 0l35.137622 60.51735h65.337298l-35.138622-60.51735h-65.336298z m154.260343 0l34.860625 60.51735h68.352266v-60.51735H784.335075z m-370.010026-77.550167h512.212498c21.38277 0 38.965581 17.337814 38.965581 38.787584v597.099586c0 21.170773-17.583811 38.481587-38.965581 38.481586H120.345207c-21.130773 0-38.12959-17.310814-38.12959-38.481586V393.330775L49.812965 273.439063c-5.497941-20.638778 7.118924-41.529554 27.463705-47.012495l200.901842-53.917421 0.833991-1.116988h1.342985l146.585426-39.600575h1.114988l0.556994-0.532994 147.674413-39.625574h0.531995l1.088988-0.253998 146.053431-39.346577h0.810991l1.088989-0.280997 1.392985-0.253997 128.44562-34.394631c20.596779-5.482941 41.725552 6.599929 47.225493 27.237708l33.46564 125.121656c5.522941 20.890776-6.863926 41.554554-27.437705 47.317491l-202.01683 54.729412h-0.835991l-146.863422 39.600575h-1.088989l-1.088988 0.557994-142.734467 37.951592z" /></svg>